<?xml version="1.0" encoding="UTF-8" standalone="no"?>
<!-- Generator: Adobe Illustrator 16.0.0, SVG Export Plug-In . SVG Version: 6.00 Build 0)  -->

<svg
   xmlns:dc="http://purl.org/dc/elements/1.1/"
   xmlns:cc="http://creativecommons.org/ns#"
   xmlns:rdf="http://www.w3.org/1999/02/22-rdf-syntax-ns#"
   xmlns:svg="http://www.w3.org/2000/svg"
   xmlns="http://www.w3.org/2000/svg"
   xmlns:sodipodi="http://sodipodi.sourceforge.net/DTD/sodipodi-0.dtd"
   xmlns:inkscape="http://www.inkscape.org/namespaces/inkscape"
   version="1.1"
   id="Layer_1"
   x="0px"
   y="0px"
   width="1496.4659"
   height="655.42871"
   viewBox="0 0 1496.466 655.42871"
   enable-background="new 0 0 1616.012 732"
   xml:space="preserve"
   sodipodi:docname="okfde.svg"
   inkscape:version="0.92.2 2405546, 2018-03-11"><metadata
   id="metadata157"><rdf:RDF><cc:Work
       rdf:about=""><dc:format>image/svg+xml</dc:format><dc:type
         rdf:resource="http://purl.org/dc/dcmitype/StillImage" /><dc:title></dc:title></cc:Work></rdf:RDF></metadata><defs
   id="defs155" /><sodipodi:namedview
   pagecolor="#ffffff"
   bordercolor="#666666"
   borderopacity="1"
   objecttolerance="10"
   gridtolerance="10"
   guidetolerance="10"
   inkscape:pageopacity="0"
   inkscape:pageshadow="2"
   inkscape:window-width="2560"
   inkscape:window-height="1440"
   id="namedview153"
   showgrid="false"
   inkscape:zoom="0.32240437"
   inkscape:cx="169.50624"
   inkscape:cy="348.73025"
   inkscape:window-x="0"
   inkscape:window-y="0"
   inkscape:window-maximized="0"
   inkscape:current-layer="Layer_1" />
<g
   id="g10"
   transform="translate(-25.915,-31.386277)">
	<path
   d="m 797.322,243.165 c -16.883,0 -28.188,-12.048 -28.188,-27.703 0,-15.655 11.306,-27.666 28.188,-27.666 16.844,0 28.11,12.085 28.11,27.666 0.002,15.655 -11.266,27.703 -28.11,27.703 z m 0,-44.995 c -9.67,0 -15.322,6.544 -15.322,17.291 0,10.858 5.652,17.291 15.322,17.291 9.594,0 15.246,-6.433 15.246,-17.291 0,-10.747 -5.652,-17.291 -15.246,-17.291 z"
   id="path2"
   inkscape:connector-curvature="0" />
	<path
   d="m 860.322,224.46 v 18.109 h -12.568 v -54.18 h 19.113 c 15.246,0 21.791,7.697 21.791,17.7 0,10.821 -6.805,18.37 -21.791,18.37 z m 0,-9.482 h 6.545 c 6.545,0 9.223,-3.272 9.223,-8.888 0,-4.945 -2.899,-8.292 -9.223,-8.292 h -6.545 z"
   id="path4"
   inkscape:connector-curvature="0" />
	<path
   d="m 946.451,188.39 v 9.668 h -22.238 v 12.643 h 17.031 v 9.297 h -17.031 v 12.903 h 22.238 v 9.668 H 911.57 v -54.18 z"
   id="path6"
   inkscape:connector-curvature="0" />
	<path
   d="m 983.643,190.324 25.732,32.538 c -0.185,-2.083 -0.297,-4.054 -0.297,-5.802 v -28.67 h 11.082 v 54.18 h -6.545 c -1.935,0 -3.162,-0.483 -4.39,-2.082 L 983.68,208.21 c 0.148,1.896 0.263,3.719 0.263,5.317 v 29.042 H 972.86 v -54.18 h 6.619 c 2.156,10e-4 2.789,0.262 4.164,1.935 z"
   id="path8"
   inkscape:connector-curvature="0" />
</g>
<g
   id="g30"
   transform="translate(-25.915,-31.386277)">
	<path
   d="m 784.529,310.818 h 2.008 c 1.859,0 3.199,-0.595 4.016,-1.747 L 802.75,291.37 c 1.34,-1.934 2.938,-2.491 5.43,-2.491 h 10.933 l -16.062,21.902 c -1.153,1.6 -2.381,2.566 -3.682,3.272 1.896,0.707 3.42,1.822 4.723,3.867 l 16.361,25.138 h -11.23 c -2.862,0 -3.903,-0.818 -4.907,-2.306 L 792.041,321.9 c -0.893,-1.376 -2.119,-1.896 -4.463,-1.896 h -3.049 v 23.055 h -12.568 v -54.18 h 12.568 z"
   id="path12"
   inkscape:connector-curvature="0" />
	<path
   d="m 855.115,290.812 25.731,32.538 c -0.186,-2.083 -0.297,-4.054 -0.297,-5.802 v -28.67 h 11.082 v 54.18 h -6.545 c -1.934,0 -3.162,-0.483 -4.389,-2.082 L 855.15,308.699 c 0.147,1.897 0.262,3.719 0.262,5.317 v 29.042 H 844.33 v -54.18 h 6.619 c 2.158,0 2.791,0.261 4.166,1.934 z"
   id="path14"
   inkscape:connector-curvature="0" />
	<path
   d="m 943.775,343.653 c -16.884,0 -28.188,-12.048 -28.188,-27.703 0,-15.655 11.305,-27.666 28.188,-27.666 16.846,0 28.112,12.085 28.112,27.666 0.002,15.655 -11.266,27.703 -28.112,27.703 z m 0,-44.994 c -9.668,0 -15.32,6.544 -15.32,17.291 0,10.858 5.652,17.291 15.32,17.291 9.594,0 15.246,-6.433 15.246,-17.291 0,-10.747 -5.652,-17.291 -15.246,-17.291 z"
   id="path16"
   inkscape:connector-curvature="0" />
	<path
   d="m 985.654,288.878 h 10.56 c 2.193,0 3.719,1.078 4.164,2.715 l 7.438,28.261 c 0.481,1.822 1.041,3.942 1.301,6.21 0.483,-2.343 1.115,-4.388 1.674,-6.21 l 8.775,-28.261 c 0.446,-1.376 2.008,-2.715 4.092,-2.715 h 3.717 c 2.195,0 3.607,1.041 4.166,2.715 l 8.701,28.261 c 0.559,1.748 1.188,3.682 1.637,5.913 0.408,-2.194 0.818,-4.165 1.264,-5.913 l 7.438,-28.261 c 0.408,-1.45 2.008,-2.715 4.09,-2.715 h 9.894 l -16.734,54.18 h -11.379 l -10.189,-33.579 c -0.334,-1.041 -0.742,-2.305 -1.078,-3.681 -0.334,1.376 -0.744,2.64 -1.078,3.681 l -10.338,33.579 h -11.379 z"
   id="path18"
   inkscape:connector-curvature="0" />
	<path
   d="m 1099.826,333.018 h 20.08 v 10.04 h -32.65 v -54.18 h 12.57 z"
   id="path20"
   inkscape:connector-curvature="0" />
	<path
   d="m 1181.492,288.878 v 9.668 h -22.236 v 12.644 h 17.031 v 9.297 h -17.031 v 12.903 h 22.236 v 9.668 h -34.881 v -54.18 z"
   id="path22"
   inkscape:connector-curvature="0" />
	<path
   d="M 1228.947,343.058 H 1207.9 v -54.18 h 21.047 c 16.846,0 28.113,11.49 28.113,27.071 10e-4,15.656 -11.267,27.109 -28.113,27.109 z m 0,-44.512 h -8.404 v 34.844 h 8.404 c 9.594,0 15.246,-6.619 15.246,-17.44 0,-10.747 -5.652,-17.404 -15.246,-17.404 z"
   id="path24"
   inkscape:connector-curvature="0" />
	<path
   d="m 1313.367,332.349 v -8.219 h -5.355 c -1.598,0 -2.526,-0.93 -2.526,-2.23 v -6.917 h 19.262 v 22.869 c -5.541,4.054 -11.898,5.801 -20.75,5.801 -15.84,0 -27.666,-11.825 -27.666,-27.703 0,-16.176 11.156,-27.666 28.633,-27.666 9.074,0 15.806,3.123 20.154,7.288 l -3.644,5.541 c -0.707,1.041 -1.674,1.673 -2.825,1.673 -0.744,0 -1.525,-0.26 -2.308,-0.743 -3.979,-2.38 -6.768,-3.384 -11.824,-3.384 -9.37,0 -15.319,6.916 -15.319,17.291 0,11.453 6.692,18.035 15.766,18.035 3.457,0 6.023,-0.632 8.402,-1.636 z"
   id="path26"
   inkscape:connector-curvature="0" />
	<path
   d="m 1385.068,288.878 v 9.668 h -22.236 v 12.644 h 17.031 v 9.297 h -17.031 v 12.903 h 22.236 v 9.668 h -34.881 v -54.18 z"
   id="path28"
   inkscape:connector-curvature="0" />
</g>
<path
   d="m 780.931,357.96872 v 9.67 h -22.239 v 13.724 h 18.521 v 9.706 h -18.521 v 21.087 h -12.646 v -54.187 z"
   id="path32"
   inkscape:connector-curvature="0" />
<path
   d="m 863.269,385.04572 c 0,3.916 -0.676,7.562 -2.026,10.934 -1.353,3.372 -3.254,6.304 -5.707,8.796 -2.455,2.491 -5.412,4.442 -8.871,5.856 -3.459,1.413 -7.295,2.119 -11.51,2.119 -4.215,0 -8.06,-0.706 -11.529,-2.119 -3.471,-1.414 -6.44,-3.365 -8.906,-5.856 -2.469,-2.492 -4.377,-5.424 -5.728,-8.796 -1.353,-3.371 -2.025,-7.018 -2.025,-10.934 0,-3.918 0.674,-7.562 2.025,-10.936 1.352,-3.371 3.26,-6.297 5.728,-8.775 2.468,-2.479 5.437,-4.427 8.906,-5.84 3.471,-1.413 7.314,-2.119 11.529,-2.119 4.215,0 8.051,0.713 11.51,2.139 3.459,1.426 6.416,3.379 8.871,5.856 2.453,2.479 4.355,5.405 5.707,8.776 1.35,3.373 2.026,7.005 2.026,10.899 z m -12.868,0 c 0,-2.679 -0.349,-5.09 -1.041,-7.233 -0.695,-2.146 -1.693,-3.962 -2.994,-5.448 -1.304,-1.488 -2.896,-2.628 -4.779,-3.422 -1.885,-0.793 -4.029,-1.189 -6.434,-1.189 -2.431,0 -4.595,0.397 -6.49,1.189 -1.896,0.794 -3.496,1.934 -4.797,3.422 -1.304,1.486 -2.302,3.305 -2.994,5.448 -0.695,2.145 -1.041,4.556 -1.041,7.233 0,2.701 0.346,5.125 1.041,7.271 0.692,2.145 1.69,3.961 2.994,5.448 1.301,1.486 2.899,2.622 4.797,3.402 1.896,0.78 4.061,1.171 6.49,1.171 2.403,0 4.549,-0.391 6.434,-1.171 1.885,-0.78 3.476,-1.916 4.779,-3.402 1.301,-1.487 2.299,-3.305 2.994,-5.448 0.694,-2.146 1.041,-4.57 1.041,-7.271 z"
   id="path34"
   inkscape:connector-curvature="0" />
<path
   d="m 914.144,402.22572 c 1.686,0 3.193,-0.279 4.52,-0.837 1.326,-0.559 2.447,-1.357 3.365,-2.398 0.918,-1.042 1.616,-2.312 2.102,-3.812 0.482,-1.5 0.725,-3.204 0.725,-5.113 v -32.097 h 12.57 v 32.097 c 0,3.322 -0.539,6.372 -1.617,9.147 -1.078,2.777 -2.623,5.17 -4.631,7.179 -2.008,2.009 -4.451,3.569 -7.326,4.687 -2.877,1.115 -6.11,1.673 -9.707,1.673 -3.618,0 -6.866,-0.558 -9.743,-1.673 -2.875,-1.116 -5.316,-2.678 -7.326,-4.687 -2.008,-2.009 -3.545,-4.4 -4.611,-7.179 -1.067,-2.775 -1.6,-5.825 -1.6,-9.147 v -32.097 h 12.569 v 32.06 c 0,1.909 0.242,3.613 0.728,5.113 0.481,1.501 1.184,2.776 2.102,3.831 0.916,1.054 2.039,1.858 3.365,2.417 1.323,0.557 2.829,0.836 4.515,0.836 z"
   id="path36"
   inkscape:connector-curvature="0" />
<path
   d="m 975.917,358.04572 c 0.373,0.049 0.707,0.143 1.004,0.277 0.299,0.137 0.582,0.329 0.856,0.577 0.272,0.248 0.582,0.582 0.93,1.004 l 25.736,32.541 c -0.101,-1.041 -0.175,-2.051 -0.224,-3.031 -0.051,-0.979 -0.076,-1.901 -0.076,-2.771 v -28.674 h 11.084 v 54.186 h -6.545 c -0.969,0 -1.785,-0.148 -2.455,-0.446 -0.67,-0.298 -1.313,-0.843 -1.934,-1.637 l -25.551,-32.28 c 0.074,0.942 0.137,1.865 0.186,2.77 0.051,0.906 0.076,1.755 0.076,2.548 v 29.046 H 967.92 v -54.186 h 6.621 c 0.546,-10e-4 1.005,0.025 1.376,0.076 z"
   id="path38"
   inkscape:connector-curvature="0" />
<path
   d="m 1095.632,385.04572 c 0,3.916 -0.676,7.529 -2.027,10.841 -1.352,3.31 -3.254,6.174 -5.709,8.591 -2.452,2.417 -5.409,4.302 -8.868,5.651 -3.459,1.354 -7.296,2.027 -11.511,2.027 h -21.051 v -54.187 h 21.051 c 4.215,0 8.052,0.684 11.511,2.047 3.459,1.363 6.416,3.248 8.868,5.652 2.455,2.404 4.357,5.262 5.709,8.572 1.351,3.31 2.027,6.912 2.027,10.806 z m -12.867,0 c 0,-2.679 -0.348,-5.097 -1.043,-7.252 -0.692,-2.158 -1.69,-3.986 -2.991,-5.486 -1.304,-1.5 -2.896,-2.652 -4.779,-3.459 -1.885,-0.805 -4.029,-1.209 -6.435,-1.209 h -8.405 v 34.848 h 8.405 c 2.404,0 4.55,-0.402 6.435,-1.208 1.883,-0.806 3.477,-1.958 4.779,-3.459 1.301,-1.5 2.299,-3.328 2.991,-5.485 0.695,-2.16 1.043,-4.589 1.043,-7.29 z"
   id="path40"
   inkscape:connector-curvature="0" />
<path
   d="m 1174.399,412.15572 h -9.744 c -1.09,0 -1.988,-0.254 -2.695,-0.763 -0.707,-0.508 -1.197,-1.158 -1.469,-1.952 l -3.199,-9.446 h -20.604 l -3.197,9.446 c -0.248,0.694 -0.732,1.32 -1.451,1.878 -0.719,0.558 -1.6,0.837 -2.641,0.837 h -9.818 l 20.977,-54.187 h 12.867 z m -34.808,-20.715 h 14.801 l -4.983,-14.839 c -0.322,-0.942 -0.699,-2.053 -1.134,-3.328 -0.436,-1.277 -0.86,-2.659 -1.282,-4.146 -0.396,1.512 -0.808,2.913 -1.229,4.202 -0.421,1.289 -0.815,2.405 -1.188,3.347 z"
   id="path42"
   inkscape:connector-curvature="0" />
<path
   d="m 1240.448,357.96872 v 9.968 h -15.246 v 44.219 h -12.57 v -44.219 h -15.248 v -9.968 z"
   id="path44"
   inkscape:connector-curvature="0" />
<path
   d="m 1281.731,412.15572 h -12.646 v -54.187 h 12.646 z"
   id="path46"
   inkscape:connector-curvature="0" />
<path
   d="m 1367.565,385.04572 c 0,3.916 -0.677,7.562 -2.027,10.934 -1.353,3.372 -3.254,6.304 -5.709,8.796 -2.455,2.491 -5.41,4.442 -8.869,5.856 -3.459,1.413 -7.297,2.119 -11.512,2.119 -4.215,0 -8.058,-0.706 -11.527,-2.119 -3.473,-1.414 -6.441,-3.365 -8.908,-5.856 -2.467,-2.492 -4.375,-5.424 -5.727,-8.796 -1.353,-3.371 -2.027,-7.018 -2.027,-10.934 0,-3.918 0.676,-7.562 2.027,-10.936 1.352,-3.371 3.26,-6.297 5.727,-8.775 2.468,-2.479 5.437,-4.427 8.908,-5.84 3.471,-1.413 7.312,-2.119 11.527,-2.119 4.215,0 8.053,0.713 11.512,2.139 3.459,1.426 6.414,3.379 8.869,5.856 2.455,2.479 4.357,5.405 5.709,8.776 1.352,3.373 2.027,7.005 2.027,10.899 z m -12.869,0 c 0,-2.679 -0.349,-5.09 -1.041,-7.233 -0.693,-2.146 -1.691,-3.962 -2.994,-5.448 -1.301,-1.488 -2.896,-2.628 -4.777,-3.422 -1.885,-0.793 -4.029,-1.189 -6.436,-1.189 -2.431,0 -4.593,0.397 -6.488,1.189 -1.896,0.794 -3.496,1.934 -4.799,3.422 -1.301,1.486 -2.299,3.305 -2.992,5.448 -0.695,2.145 -1.043,4.556 -1.043,7.233 0,2.701 0.348,5.125 1.043,7.271 0.693,2.145 1.691,3.961 2.992,5.448 1.303,1.486 2.901,2.622 4.799,3.402 1.896,0.78 4.059,1.171 6.488,1.171 2.405,0 4.551,-0.391 6.436,-1.171 1.883,-0.78 3.478,-1.916 4.777,-3.402 1.303,-1.487 2.301,-3.305 2.994,-5.448 0.694,-2.146 1.041,-4.57 1.041,-7.271 z"
   id="path48"
   inkscape:connector-curvature="0" />
<path
   d="m 1403.899,358.04572 c 0.37,0.049 0.704,0.143 1.004,0.277 0.297,0.137 0.582,0.329 0.854,0.577 0.271,0.248 0.582,0.582 0.931,1.004 l 25.733,32.541 c -0.1,-1.041 -0.174,-2.051 -0.223,-3.031 -0.052,-0.979 -0.074,-1.901 -0.074,-2.771 v -28.674 h 11.082 v 54.186 h -6.545 c -0.967,0 -1.785,-0.148 -2.455,-0.446 -0.668,-0.298 -1.313,-0.843 -1.934,-1.637 l -25.55,-32.28 c 0.074,0.942 0.136,1.865 0.187,2.77 0.049,0.906 0.074,1.755 0.074,2.548 v 29.046 h -11.082 v -54.186 h 6.619 c 0.547,-10e-4 1.006,0.025 1.379,0.076 z"
   id="path50"
   inkscape:connector-curvature="0" />
<rect
   x="-493.591"
   y="156.73988"
   transform="rotate(-143.23667)"
   width="21.010616"
   height="173.93683"
   id="rect52"
   style="stroke-width:0.9999817" />
<rect
   x="-475.62256"
   y="71.470512"
   transform="rotate(-153.5195)"
   width="21.015324"
   height="83.789291"
   id="rect54"
   style="stroke-width:1.00001538" />
<rect
   x="-442.69846"
   y="-9.261941"
   transform="rotate(-163.80511)"
   width="21.018593"
   height="131.73045"
   id="rect56"
   style="stroke-width:0.99998063" />
<polygon
   points="398.88,69.057 419.792,71.222 411.174,154.535 390.269,152.372 "
   id="polygon58"
   transform="translate(-25.915,-31.386277)" />
<polygon
   points="365.658,58.544 372.83,152.122 351.876,153.726 344.705,60.146 "
   id="polygon60"
   transform="translate(-25.915,-31.386277)" />
<polygon
   points="318.407,94.448 334.665,156.589 314.347,161.911 298.078,99.771 "
   id="polygon62"
   transform="translate(-25.915,-31.386277)" />
<rect
   x="-238.44484"
   y="168.04288"
   transform="rotate(-114.95562)"
   width="43.057343"
   height="21.003193"
   id="rect64"
   style="stroke-width:0.99996156" />
<polygon
   points="254.04,171.612 263.771,185.407 246.613,197.528 236.875,183.734 "
   id="polygon66"
   transform="translate(-25.915,-31.386277)" />
<polygon
   points="184.031,160.431 233.313,208.81 218.593,223.811 169.313,175.43 "
   id="polygon68"
   transform="translate(-25.915,-31.386277)" />
<polygon
   points="131.27,185.002 207.521,237.29 195.712,254.668 119.461,202.38 "
   id="polygon70"
   transform="translate(-25.915,-31.386277)" />
<polygon
   points="139.21,248.623 187.231,269.907 178.712,289.113 130.694,267.831 "
   id="polygon72"
   transform="translate(-25.915,-31.386277)" />
<polygon
   points="173.089,305.627 30.865,271.172 25.915,291.59 168.145,326.049 "
   id="polygon74"
   transform="translate(-25.915,-31.386277)" />
<rect
   x="-157.53778"
   y="-324.27841"
   transform="rotate(-176.6692)"
   width="106.28786"
   height="21.017775"
   id="rect76"
   style="stroke-width:0.99998927" />
<rect
   x="-385.55829"
   y="-8.0322781"
   transform="rotate(-96.943802)"
   width="21.009737"
   height="103.61363"
   id="rect78"
   style="stroke-width:1.00003505" />
<rect
   x="-434.82895"
   y="-0.54758078"
   transform="rotate(-107.24089)"
   width="21.011724"
   height="24.090832"
   id="rect80"
   style="stroke-width:1.00003445" />
<rect
   x="-470.40314"
   y="-143.16017"
   transform="rotate(-117.51571)"
   width="21.014374"
   height="87.169548"
   id="rect82"
   style="stroke-width:1.00001776" />
<rect
   x="-491.23041"
   y="-234.68039"
   transform="rotate(-127.80614)"
   width="21.010284"
   height="93.978264"
   id="rect84"
   style="stroke-width:1.00001347" />
<rect
   x="-496.58871"
   y="-319.40176"
   transform="rotate(-138.10095)"
   width="21.008364"
   height="91.60022"
   id="rect86"
   style="stroke-width:0.99996966" />
<rect
   x="-486.28925"
   y="-356.68518"
   transform="rotate(-148.38574)"
   width="21.016087"
   height="42.28817"
   id="rect88"
   style="stroke-width:1.00000405" />
<polygon
   points="290.855,561.831 310.427,569.477 280.483,646.164 260.911,638.519 "
   id="polygon90"
   transform="translate(-25.915,-31.386277)" />
<rect
   x="-420.72476"
   y="-550.75232"
   transform="rotate(-168.95412)"
   width="21.012554"
   height="75.554993"
   id="rect92"
   style="stroke-width:1.00002635" />
<polygon
   points="365.143,580.202 386.153,580.477 385.456,633.026 364.445,632.745 "
   id="polygon94"
   transform="translate(-25.915,-31.386277)" />
<polygon
   points="424.273,575.685 441.084,675.896 420.361,679.377 403.547,579.165 "
   id="polygon96"
   transform="translate(-25.915,-31.386277)" />
<rect
   x="-710.09503"
   y="207.71056"
   transform="rotate(-109.81031)"
   width="61.383705"
   height="21.006557"
   id="rect98"
   style="stroke-width:0.9999789" />
<polygon
   points="571.137,676.273 494.921,546.297 476.742,556.832 552.953,686.815 "
   id="polygon100"
   transform="translate(-25.915,-31.386277)" />
<polygon
   points="524.771,522.176 536.39,534.095 521.201,548.626 509.587,536.705 "
   id="polygon102"
   transform="translate(-25.915,-31.386277)" />
<polygon
   points="550.737,493.949 603.128,536.875 589.805,553.131 537.415,510.203 "
   id="polygon104"
   transform="translate(-25.915,-31.386277)" />
<polygon
   points="570.756,461.161 624.269,490.873 614.066,509.247 560.56,479.531 "
   id="polygon106"
   transform="translate(-25.915,-31.386277)" />
<polygon
   points="584.599,425.32 610.44,434.098 603.69,453.999 577.841,445.219 "
   id="polygon108"
   transform="translate(-25.915,-31.386277)" />
<rect
   x="-694.09479"
   y="-289.92975"
   transform="rotate(-171.52391)"
   width="81.876869"
   height="21.012478"
   id="rect110"
   style="stroke-width:1.00002277" />
<polygon
   points="644.152,347.535 644.822,368.543 592.856,370.18 592.188,349.177 "
   id="polygon112"
   transform="translate(-25.915,-31.386277)" />
<rect
   x="-412.03625"
   y="488.64212"
   transform="rotate(-102.09876)"
   width="21.014263"
   height="65.71582"
   id="rect114"
   style="stroke-width:1.00001252" />
<polygon
   points="614,258.147 621.997,277.569 580.549,294.647 572.546,275.221 "
   id="polygon116"
   transform="translate(-25.915,-31.386277)" />
<polygon
   points="662.887,171.689 674.232,189.381 564.502,259.746 553.163,242.053 "
   id="polygon118"
   transform="translate(-25.915,-31.386277)" />
<polygon
   points="544.743,197.449 559.054,212.824 542.484,228.262 528.166,212.89 "
   id="polygon120"
   transform="translate(-25.915,-31.386277)" />
<g
   id="g126"
   transform="translate(-25.915,-31.386277)">
	<path
   d="m 362.427,350.361 c -1.681,-1.936 -3.736,-3.424 -6.168,-4.465 -2.433,-1.039 -5.201,-1.56 -8.305,-1.56 h -10.848 v 44.977 h 10.848 c 3.103,0 5.872,-0.521 8.305,-1.561 2.432,-1.039 4.487,-2.527 6.168,-4.464 1.681,-1.937 2.968,-4.296 3.863,-7.08 0.895,-2.784 1.345,-5.92 1.345,-9.408 0,-3.456 -0.449,-6.576 -1.345,-9.359 -0.895,-2.784 -2.184,-5.143 -3.863,-7.08 z"
   id="path122"
   inkscape:connector-curvature="0" />
	<path
   d="m 510.696,370.529 -0.472,-15.396 -46.673,1.427 45.668,-9.732 -3.211,-15.065 -45.69,9.737 43.215,-17.734 -5.849,-14.25 -43.175,17.718 39.321,-25.136 -8.297,-12.979 -39.358,25.159 34.235,-31.78 -10.479,-11.289 -34.23,31.776 28.008,-37.371 -12.326,-9.236 -28.007,37.371 20.887,-41.768 -13.774,-6.889 -20.89,41.772 13.101,-44.829 -14.785,-4.32 -13.1,44.831 4.891,-46.444 -15.318,-1.613 -5.062,48.084 -3.774,-48.202 -15.354,1.203 3.644,46.543 -11.888,-45.143 -14.896,3.922 11.895,45.167 -19.763,-42.318 -13.955,6.518 19.759,42.309 -26.994,-38.105 -12.568,8.902 27.005,38.123 -33.374,-32.689 -10.777,11.004 33.353,32.669 -38.648,-26.196 -8.643,12.75 38.665,26.206 -42.721,-18.884 -6.227,14.088 42.719,18.883 -45.405,-10.954 -3.611,14.973 45.392,10.951 -46.613,-2.676 -0.883,15.377 46.635,2.677 -46.363,5.688 1.875,15.287 46.373,-5.689 -44.612,13.874 4.574,14.707 44.587,-13.866 -41.396,21.602 7.125,13.655 41.397,-21.602 -36.878,28.642 9.447,12.164 36.881,-28.645 -31.178,34.767 11.467,10.283 31.17,-34.76 -24.47,39.766 13.117,8.072 24.482,-39.785 -16.987,43.512 14.348,5.603 16.987,-43.514 -8.95,45.846 15.117,2.95 8.946,-45.825 -0.622,46.688 15.399,0.205 0.623,-46.72 7.725,46.082 15.19,-2.547 -7.718,-46.046 15.809,43.927 14.492,-5.217 -15.814,-43.942 23.402,40.415 13.33,-7.719 -23.396,-40.403 30.23,35.583 11.738,-9.973 -30.24,-35.595 36.102,29.62 9.77,-11.907 -36.125,-29.641 40.836,22.72 7.488,-13.459 -40.798,-22.698 44.191,15.053 4.968,-14.58 -44.216,-15.061 46.195,6.928 2.285,-15.232 -46.21,-6.931 z m -129.07,10.264 c -1.744,4.271 -4.199,7.968 -7.367,11.088 -3.168,3.12 -6.983,5.553 -11.448,7.296 -4.464,1.745 -9.416,2.616 -14.855,2.616 h -27.168 v -69.936 h 27.168 c 5.439,0 10.393,0.88 14.855,2.64 4.465,1.76 8.28,4.192 11.448,7.296 3.168,3.104 5.623,6.792 7.367,11.064 1.744,4.272 2.616,8.92 2.616,13.943 0,5.057 -0.872,9.721 -2.616,13.993 z m 55.416,-36.456 h -28.704 v 16.32 h 21.984 v 12 h -21.984 v 16.655 h 28.704 v 12.479 h -45.024 v -69.936 h 45.024 z"
   id="path124"
   inkscape:connector-curvature="0" />
</g>
<g
   id="g150"
   transform="translate(-25.915,-31.386277)">
	<path
   d="m 816.795,505.15 c 0,3.972 -0.629,7.585 -1.887,10.842 -1.258,3.256 -3.035,6.043 -5.328,8.361 -2.295,2.318 -5.045,4.113 -8.252,5.384 -3.206,1.271 -6.758,1.905 -10.655,1.905 h -19.832 v -53.021 h 19.832 c 3.897,0 7.449,0.636 10.655,1.906 3.207,1.271 5.957,3.07 8.252,5.402 2.293,2.33 4.07,5.124 5.328,8.38 1.258,3.256 1.887,6.871 1.887,10.841 z m -7.363,0 c 0,-3.256 -0.443,-6.166 -1.332,-8.732 -0.889,-2.564 -2.146,-4.735 -3.773,-6.512 -1.629,-1.775 -3.602,-3.132 -5.92,-4.07 -2.319,-0.937 -4.896,-1.405 -7.733,-1.405 h -12.617 v 41.403 h 12.617 c 2.837,0 5.414,-0.469 7.733,-1.406 2.318,-0.938 4.291,-2.287 5.92,-4.052 1.627,-1.763 2.885,-3.928 3.773,-6.493 0.888,-2.565 1.332,-5.477 1.332,-8.733 z"
   id="path128"
   inkscape:connector-curvature="0" />
	<path
   d="m 881.137,478.621 v 5.847 H 855.68 v 17.612 h 20.609 v 5.623 H 855.68 v 18.094 h 25.457 v 5.846 h -32.672 v -53.021 h 32.672 z"
   id="path130"
   inkscape:connector-curvature="0" />
	<path
   d="m 933.973,525.944 c 2.195,0 4.156,-0.37 5.883,-1.11 1.727,-0.739 3.188,-1.775 4.385,-3.107 1.195,-1.332 2.109,-2.923 2.738,-4.773 0.629,-1.85 0.943,-3.885 0.943,-6.104 v -32.228 h 7.141 v 32.228 c 0,3.059 -0.488,5.896 -1.461,8.51 -0.975,2.615 -2.369,4.878 -4.182,6.79 -1.813,1.912 -4.027,3.41 -6.641,4.495 -2.615,1.085 -5.551,1.628 -8.807,1.628 -3.256,0 -6.191,-0.543 -8.807,-1.628 -2.616,-1.085 -4.834,-2.583 -6.66,-4.495 -1.824,-1.912 -3.225,-4.175 -4.199,-6.79 -0.975,-2.614 -1.461,-5.451 -1.461,-8.51 v -32.228 h 7.141 v 32.19 c 0,2.22 0.314,4.255 0.943,6.104 0.629,1.851 1.541,3.441 2.738,4.773 1.195,1.332 2.664,2.375 4.402,3.127 1.742,0.752 3.708,1.128 5.904,1.128 z"
   id="path132"
   inkscape:connector-curvature="0" />
	<path
   d="m 1025.398,478.621 v 6.031 h -17.131 v 46.99 h -7.178 v -46.99 h -17.205 v -6.031 z"
   id="path134"
   inkscape:connector-curvature="0" />
	<path
   d="m 1082.01,486.91 c -0.223,0.369 -0.457,0.646 -0.703,0.832 -0.248,0.186 -0.568,0.277 -0.963,0.277 -0.42,0 -0.906,-0.209 -1.461,-0.629 -0.555,-0.419 -1.258,-0.882 -2.109,-1.388 -0.852,-0.505 -1.875,-0.968 -3.07,-1.388 -1.197,-0.419 -2.646,-0.629 -4.348,-0.629 -1.604,0 -3.023,0.217 -4.256,0.648 -1.234,0.432 -2.264,1.017 -3.09,1.757 -0.826,0.739 -1.449,1.609 -1.867,2.608 -0.42,0.999 -0.629,2.078 -0.629,3.238 0,1.479 0.363,2.707 1.09,3.681 0.729,0.975 1.689,1.808 2.887,2.497 1.195,0.691 2.553,1.289 4.07,1.795 1.517,0.506 3.07,1.03 4.662,1.572 1.59,0.543 3.145,1.154 4.662,1.832 1.516,0.679 2.873,1.535 4.07,2.571 1.195,1.036 2.158,2.307 2.885,3.812 0.729,1.504 1.092,3.354 1.092,5.549 0,2.319 -0.395,4.496 -1.184,6.531 -0.789,2.035 -1.943,3.805 -3.459,5.31 -1.518,1.505 -3.381,2.688 -5.588,3.552 -2.207,0.864 -4.717,1.295 -7.529,1.295 -3.43,0 -6.555,-0.623 -9.379,-1.868 -2.826,-1.245 -5.236,-2.929 -7.234,-5.051 l 2.072,-3.403 c 0.197,-0.271 0.438,-0.5 0.721,-0.686 0.283,-0.185 0.598,-0.277 0.943,-0.277 0.52,0 1.111,0.277 1.777,0.833 0.666,0.555 1.498,1.165 2.498,1.831 0.998,0.666 2.207,1.277 3.625,1.832 1.418,0.555 3.15,0.832 5.199,0.832 1.701,0 3.219,-0.234 4.551,-0.703 1.332,-0.468 2.461,-1.128 3.385,-1.979 0.926,-0.852 1.635,-1.869 2.127,-3.053 0.494,-1.185 0.74,-2.504 0.74,-3.959 0,-1.604 -0.363,-2.917 -1.092,-3.941 -0.727,-1.023 -1.684,-1.881 -2.867,-2.57 -1.184,-0.691 -2.533,-1.277 -4.051,-1.758 -1.518,-0.481 -3.07,-0.975 -4.662,-1.48 -1.592,-0.505 -3.145,-1.092 -4.662,-1.758 -1.517,-0.666 -2.867,-1.529 -4.051,-2.59 -1.186,-1.061 -2.141,-2.387 -2.867,-3.977 -0.729,-1.592 -1.092,-3.559 -1.092,-5.902 0,-1.874 0.363,-3.688 1.092,-5.439 0.727,-1.75 1.781,-3.305 3.162,-4.662 1.381,-1.355 3.09,-2.441 5.125,-3.256 2.035,-0.813 4.371,-1.221 7.012,-1.221 2.959,0 5.66,0.469 8.104,1.406 2.441,0.938 4.574,2.294 6.4,4.07 z"
   id="path136"
   inkscape:connector-curvature="0" />
	<path
   d="m 1153.344,520.69 c 0.395,0 0.752,0.161 1.074,0.481 l 2.811,3.07 c -2.17,2.517 -4.803,4.478 -7.898,5.883 -3.096,1.406 -6.826,2.109 -11.193,2.109 -3.822,0 -7.289,-0.66 -10.396,-1.979 -3.107,-1.319 -5.76,-3.169 -7.955,-5.55 -2.195,-2.381 -3.898,-5.235 -5.105,-8.565 -1.209,-3.33 -1.812,-6.993 -1.812,-10.989 0,-3.996 0.646,-7.658 1.941,-10.988 1.295,-3.33 3.113,-6.191 5.457,-8.584 2.344,-2.393 5.15,-4.249 8.418,-5.568 3.268,-1.32 6.875,-1.98 10.822,-1.98 3.898,0 7.258,0.605 10.084,1.813 2.822,1.208 5.332,2.849 7.529,4.921 l -2.332,3.293 c -0.172,0.246 -0.369,0.45 -0.592,0.61 -0.223,0.161 -0.543,0.241 -0.963,0.241 -0.32,0 -0.66,-0.117 -1.016,-0.352 -0.359,-0.234 -0.785,-0.524 -1.277,-0.87 -0.494,-0.345 -1.072,-0.715 -1.738,-1.11 -0.666,-0.395 -1.457,-0.764 -2.369,-1.109 -0.912,-0.345 -1.973,-0.635 -3.182,-0.869 -1.209,-0.234 -2.604,-0.352 -4.182,-0.352 -2.836,0 -5.432,0.486 -7.787,1.461 -2.357,0.975 -4.385,2.362 -6.088,4.162 -1.701,1.801 -3.027,3.996 -3.977,6.586 -0.95,2.59 -1.426,5.489 -1.426,8.695 0,3.306 0.477,6.254 1.426,8.844 0.949,2.59 2.244,4.779 3.885,6.566 1.641,1.789 3.582,3.152 5.828,4.089 2.244,0.938 4.662,1.406 7.252,1.406 1.578,0 2.996,-0.093 4.254,-0.277 1.258,-0.184 2.424,-0.476 3.496,-0.87 1.074,-0.395 2.072,-0.894 2.998,-1.498 0.924,-0.604 1.855,-1.326 2.793,-2.164 0.419,-0.371 0.825,-0.556 1.22,-0.556 z"
   id="path138"
   inkscape:connector-curvature="0" />
	<path
   d="m 1231.562,531.643 h -7.215 v -24.124 h -28.564 v 24.124 h -7.215 v -53.021 h 7.215 v 23.644 h 28.564 v -23.644 h 7.215 z"
   id="path140"
   inkscape:connector-curvature="0" />
	<path
   d="m 1273.594,525.611 h 22.941 v 6.031 h -30.119 v -53.021 h 7.178 z"
   id="path142"
   inkscape:connector-curvature="0" />
	<path
   d="m 1369.979,531.643 h -5.549 c -0.643,0 -1.16,-0.16 -1.555,-0.48 -0.395,-0.32 -0.691,-0.729 -0.889,-1.222 l -4.957,-12.802 h -23.791 l -4.959,12.802 c -0.172,0.444 -0.469,0.839 -0.887,1.185 -0.42,0.346 -0.939,0.518 -1.555,0.518 h -5.551 l 21.201,-53.021 h 7.289 z m -34.743,-19.684 h 19.795 l -8.326,-21.571 c -0.543,-1.332 -1.072,-2.997 -1.59,-4.995 -0.271,1.012 -0.537,1.942 -0.797,2.793 -0.258,0.852 -0.512,1.598 -0.758,2.239 z"
   id="path144"
   inkscape:connector-curvature="0" />
	<path
   d="m 1403.703,478.862 c 0.309,0.161 0.66,0.487 1.055,0.98 l 30.711,39.96 c -0.074,-0.641 -0.125,-1.264 -0.148,-1.869 -0.025,-0.604 -0.037,-1.189 -0.037,-1.757 V 478.62 h 6.289 v 53.021 h -3.625 c -0.568,0 -1.043,-0.098 -1.426,-0.296 -0.381,-0.197 -0.758,-0.53 -1.127,-0.999 l -30.674,-39.923 c 0.049,0.616 0.086,1.221 0.111,1.813 0.023,0.592 0.037,1.135 0.037,1.627 v 37.777 h -6.291 v -53.021 h 3.701 c 0.641,0.002 1.116,0.083 1.424,0.243 z"
   id="path146"
   inkscape:connector-curvature="0" />
	<path
   d="m 1522.381,505.15 c 0,3.972 -0.629,7.585 -1.887,10.842 -1.258,3.256 -3.033,6.043 -5.328,8.361 -2.295,2.318 -5.045,4.113 -8.252,5.384 -3.205,1.271 -6.758,1.905 -10.654,1.905 h -19.832 v -53.021 h 19.832 c 3.896,0 7.449,0.636 10.654,1.906 3.207,1.271 5.957,3.07 8.252,5.402 2.295,2.33 4.07,5.124 5.328,8.38 1.258,3.256 1.887,6.871 1.887,10.841 z m -7.363,0 c 0,-3.256 -0.443,-6.166 -1.332,-8.732 -0.887,-2.564 -2.146,-4.735 -3.773,-6.512 -1.629,-1.775 -3.602,-3.132 -5.92,-4.07 -2.318,-0.937 -4.896,-1.405 -7.732,-1.405 h -12.617 v 41.403 h 12.617 c 2.836,0 5.414,-0.469 7.732,-1.406 2.318,-0.937 4.291,-2.287 5.92,-4.052 1.627,-1.763 2.887,-3.928 3.773,-6.493 0.888,-2.566 1.332,-5.477 1.332,-8.733 z"
   id="path148"
   inkscape:connector-curvature="0" />
</g>
</svg>