<?xml version="1.0" encoding="UTF-8" standalone="no"?>
<!-- Generator: Adobe Illustrator 19.2.1, SVG Export Plug-In . SVG Version: 6.00 Build 0)  -->

<svg
   xmlns:dc="http://purl.org/dc/elements/1.1/"
   xmlns:cc="http://creativecommons.org/ns#"
   xmlns:rdf="http://www.w3.org/1999/02/22-rdf-syntax-ns#"
   xmlns:svg="http://www.w3.org/2000/svg"
   xmlns="http://www.w3.org/2000/svg"
   xmlns:sodipodi="http://sodipodi.sourceforge.net/DTD/sodipodi-0.dtd"
   xmlns:inkscape="http://www.inkscape.org/namespaces/inkscape"
   version="1.1"
   x="0px"
   y="0px"
   viewBox="0 0 258.31609 456.29998"
   xml:space="preserve"
   id="svg39"
   sodipodi:docname="prototypefund.svg"
   width="258.3161"
   height="456.29999"
   inkscape:version="0.92.2 2405546, 2018-03-11"><metadata
   id="metadata45"><rdf:RDF><cc:Work
       rdf:about=""><dc:format>image/svg+xml</dc:format><dc:type
         rdf:resource="http://purl.org/dc/dcmitype/StillImage" /><dc:title></dc:title></cc:Work></rdf:RDF></metadata><defs
   id="defs43" /><sodipodi:namedview
   pagecolor="#ffffff"
   bordercolor="#666666"
   borderopacity="1"
   objecttolerance="10"
   gridtolerance="10"
   guidetolerance="10"
   inkscape:pageopacity="0"
   inkscape:pageshadow="2"
   inkscape:window-width="2560"
   inkscape:window-height="1440"
   id="namedview41"
   showgrid="false"
   inkscape:zoom="0.46265438"
   inkscape:cx="-298.73453"
   inkscape:cy="248.70296"
   inkscape:window-x="0"
   inkscape:window-y="0"
   inkscape:window-maximized="0"
   inkscape:current-layer="svg39" />
<style
   type="text/css"
   id="style2">
	.st0{fill:#1D1D1B;}
	.st1{fill:#009ACE;}
</style>
<g
   id="Ebene_2"
   transform="translate(-25.2,-28)">
	<g
   id="g34">
		<g
   id="g22">
			<path
   class="st0"
   d="m 25.2,380.5 h 11.7 c 9.2,0 17,4.6 17,13.7 0,9.7 -8.3,14.1 -17.6,14.1 h -4.8 v 17 h -6.2 z m 6.2,22.6 4.9,-0.1 c 4.1,0 11.1,-1.5 11.1,-8.8 0,-7 -6.8,-8.6 -10.4,-8.6 l -5.6,-0.1 z"
   id="path4"
   inkscape:connector-curvature="0"
   style="fill:#1d1d1b" />
			<path
   class="st0"
   d="m 58.6,402.3 c 0,-2.8 -0.1,-5.5 -0.4,-8.1 h 5.6 l 0.3,8.1 h 0.4 c 1.1,-4 4.5,-8.6 9.1,-8.6 1.7,0 3,0.4 4,0.9 v 5.3 c -0.9,-0.4 -2.2,-0.8 -3.5,-0.8 -5.9,0 -9.2,5.8 -9.6,12.4 v 13.8 h -5.9 z"
   id="path6"
   inkscape:connector-curvature="0"
   style="fill:#1d1d1b" />
			<path
   class="st0"
   d="m 95,393.3 c 10.7,0 15.3,9.4 15.3,16.4 0,8.3 -5.4,16.6 -15.3,16.6 -9.9,0 -15.6,-7.9 -15.6,-16.6 0,-7.2 4.8,-16.4 15.6,-16.4 z m -0.1,28.6 c 4.8,0 9.3,-3.8 9.3,-12.3 0,-7.9 -4.3,-11.9 -9.3,-11.9 -4,0 -9.4,2.6 -9.4,12 0,6.4 2.9,12.2 9.4,12.2 z"
   id="path8"
   inkscape:connector-curvature="0"
   style="fill:#1d1d1b" />
			<path
   class="st0"
   d="m 113,394.1 h 5.1 l 1.1,-9.3 h 4.6 v 9.3 h 8.8 v 4.5 h -8.8 v 17.6 c 0,2.8 1.4,4.5 4.3,4.5 1.7,0 3.7,-0.6 4.5,-0.9 v 4.6 c -1.1,0.7 -3.1,1.6 -5.2,1.6 -6,0 -9.4,-3.6 -9.4,-9.6 v -17.6 h -5 z"
   id="path10"
   inkscape:connector-curvature="0"
   style="fill:#1d1d1b" />
			<path
   class="st0"
   d="m 151.3,393.3 c 10.7,0 15.3,9.4 15.3,16.4 0,8.3 -5.4,16.6 -15.3,16.6 -9.9,0 -15.6,-7.9 -15.6,-16.6 0,-7.2 4.9,-16.4 15.6,-16.4 z m -0.1,28.6 c 4.8,0 9.3,-3.8 9.3,-12.3 0,-7.9 -4.3,-11.9 -9.3,-11.9 -4,0 -9.4,2.6 -9.4,12 0,6.4 2.9,12.2 9.4,12.2 z"
   id="path12"
   inkscape:connector-curvature="0"
   style="fill:#1d1d1b" />
			<path
   class="st0"
   d="m 169.4,394.1 h 5.1 l 1.1,-9.3 h 4.6 v 9.3 h 8.8 v 4.5 h -8.8 v 17.6 c 0,2.8 1.4,4.5 4.3,4.5 1.7,0 3.7,-0.6 4.5,-0.9 v 4.6 c -1.1,0.7 -3.1,1.6 -5.2,1.6 -6,0 -9.4,-3.6 -9.4,-9.6 v -17.6 h -5 z"
   id="path14"
   inkscape:connector-curvature="0"
   style="fill:#1d1d1b" />
			<path
   class="st0"
   d="m 208,431.5 c -1.9,4.8 -5,6.3 -8.8,6.3 -1.3,0 -3,-0.2 -4.1,-0.6 v -5 c 0.9,0.3 2.5,0.6 3.4,0.6 2,0 3.2,-0.7 4.1,-2.5 0.6,-1.3 1.6,-4 1.9,-5 0.3,-1.4 -0.6,-2.2 -1.8,-2.1 l -11.2,-29 h 6.5 l 8.7,24.7 h 0.4 l 7.6,-24.7 h 6.1 c -10.6,31.1 -11.4,33.4 -12.8,37.3 z"
   id="path16"
   inkscape:connector-curvature="0"
   style="fill:#1d1d1b" />
			<path
   class="st0"
   d="m 230.5,437.2 h -5.8 v -38.5 c 0,-1.3 -0.1,-3.4 -0.1,-4.6 h 5.5 c 0.1,1.2 0.1,3.5 0.1,4.7 h 0.4 c 2.1,-3.2 5.1,-5.2 9.2,-5.2 8.6,0 13.3,7.6 13.3,16.3 0,9 -4.8,16.3 -13,16.3 -5.6,0 -8.3,-3.7 -9.2,-5 h -0.4 c 0,0 0.1,2.2 0.1,4.2 z m 7.9,-39.1 c -4.3,0 -7.6,4.5 -7.9,7.8 v 7.5 c 0.1,3.4 3.2,8.3 8.1,8.3 5.7,0 8.3,-5.4 8.3,-11.8 0,-7.1 -2.8,-11.8 -8.5,-11.8 z"
   id="path18"
   inkscape:connector-curvature="0"
   style="fill:#1d1d1b" />
			<path
   class="st0"
   d="m 261.3,410.5 c 0.1,6.5 3.2,11.2 9.1,11.2 3.8,0 6.7,-2.5 7.4,-6 h 5.7 c -0.7,5.1 -5.3,10.5 -13.5,10.5 -8.7,0 -14.6,-6.6 -14.6,-16.8 0,-8.7 5.5,-16.1 14.2,-16.1 11.4,0 14.6,9.9 13.8,17.2 z m 16.4,-4.3 c 0.1,-3 -1.6,-8.6 -7.9,-8.6 -4.2,0 -7.8,3 -8.3,8.7 z"
   id="path20"
   inkscape:connector-curvature="0"
   style="fill:#1d1d1b" />
		</g>
		<g
   id="g32">
			<path
   class="st0"
   d="m 25.2,439 h 25 v 5.3 H 31.6 v 14.8 h 17.6 v 5.2 H 31.6 v 19.5 h -6.3 z"
   id="path24"
   inkscape:connector-curvature="0"
   style="fill:#1d1d1b" />
			<path
   class="st0"
   d="m 81.7,452.7 v 25.8 c 0,1.6 0.1,3.7 0.4,5.3 h -6 C 76,482.5 76,480.2 76,478.4 h -0.4 c -0.7,1.3 -3.8,5.8 -10.1,5.8 -4.2,0 -10.6,-2.3 -10.6,-11.7 v -19.9 h 6 v 19.9 c 0,4.1 1.9,6.9 5.9,6.9 4.2,0 7.9,-3.7 8.9,-9.1 v -17.7 h 6 z"
   id="path26"
   inkscape:connector-curvature="0"
   style="fill:#1d1d1b" />
			<path
   class="st0"
   d="m 87.5,458 c 0,-1.6 -0.1,-3.5 -0.3,-5.3 h 6 v 5.3 h 0.4 c 0.8,-1.4 4.2,-6 10.1,-6 3.7,0 10.3,2 10.3,11.5 v 20.3 h -6 v -20.4 c 0,-4.3 -1.9,-6.8 -5.5,-6.8 -4.3,0 -7.9,4 -9.1,9.1 v 18.1 h -5.9 z"
   id="path28"
   inkscape:connector-curvature="0"
   style="fill:#1d1d1b" />
			<path
   class="st0"
   d="m 140.1,439 h 5.8 v 40.2 c 0,1.3 0,3.4 0.1,4.6 h -5.3 c -0.1,-1.3 -0.1,-3.2 -0.1,-4.6 h -0.4 c -2.1,3.2 -5.2,5.1 -9.2,5.1 -8.7,0 -13.5,-7.6 -13.5,-16.3 0,-9 4.8,-16.3 13,-16.3 5.6,0 8.3,3.7 9.2,5 h 0.4 c 0,0 -0.1,-2.1 -0.1,-4.2 z m -7.8,40.9 c 4.3,0 7.6,-4.5 7.8,-7.7 v -7.6 c -0.1,-3.4 -3.2,-8.3 -8.1,-8.3 -5.7,0 -8.3,5.4 -8.3,11.8 0.1,7.1 2.9,11.8 8.6,11.8 z"
   id="path30"
   inkscape:connector-curvature="0"
   style="fill:#1d1d1b" />
		</g>
	</g>
	<path
   id="XMLID_19_"
   class="st1"
   d="m 199.3,28.1 38.3,4.8 45.3,87 -45.3,73.1 c 0,0 -51.7,13.5 -71.5,18.3 H 121 v 117.8 l 36.5,12.9 -0.9,12.6 -64.9,-0.9 -65.1,0.9 L 25.2,342 62,329.1 V 53.3 L 25.2,40.6 26.6,28 Z m -78.3,158.1 37.7,7.2 58.2,-40.6 18,-32.9 -18,-33.1 -58.2,-38.4 -37.7,5 z"
   inkscape:connector-curvature="0"
   style="fill:#009ace" />
</g>
<g
   id="Ebene_1"
   transform="translate(-25.2,-28)">
</g>
</svg>