<svg xmlns="http://www.w3.org/2000/svg" width="1037.814" height="280.475" viewBox="0 0 274.588 74.209"><path d="M43.583 0S16.299 0 9.478 1.795C5.816 2.8 2.8 5.815 1.795 9.55 0 16.37 0 30.515 0 30.515S0 44.73 1.795 51.48a10.922 10.922 0 0 0 7.683 7.682c3.612.979 12.79 1.442 20.723 1.663L43.583 74.21l13.374-13.374c7.95-.213 17.151-.658 20.73-1.6a10.92 10.92 0 0 0 7.683-7.683c1.795-6.82 1.795-20.965 1.795-20.965s.072-14.217-1.795-21.038a10.92 10.92 0 0 0-7.682-7.682C70.867 0 43.583 0 43.583 0z" fill="#336f2f"/><path style="line-height:1.25;-inkscape-font-specification:'Noto Sans Ultra-Bold';text-align:center" d="M63.632 30.907l-12.41 15.31-8.229-4.316L52.1 30.435l-9.106-11.466 8.229-4.384 12.41 15.445zm-17.671 0l-12.478 15.31-8.161-4.316 9.038-11.466-9.038-11.466 8.161-4.384L45.961 30.03z" font-weight="800" font-size="67.448" font-family="Noto Sans" letter-spacing="0" text-anchor="middle" fill="#fff"/><g aria-label="Timelens" style="line-height:100%;-inkscape-font-specification:'Montserrat Bold';font-variant-ligatures:discretionary-ligatures historical-ligatures;font-variant-caps:normal;font-variant-numeric:lining-nums tabular-nums slashed-zero;font-feature-settings:normal;text-align:start" font-weight="900" font-size="44.401" font-family="Noto Sans" fill="#272727" fill-opacity=".992" stroke-width="2.517" stroke-linecap="round" stroke-linejoin="round" font-stretch="condensed"><path d="M114.868 46.409h-7.814V21.367h-6.35v-6.66h20.47v6.66h-6.306zM128.235 11.954q1.954 0 2.975.888 1.065.888 1.065 2.886 0 1.954-1.065 2.842-1.066.888-2.975.888-1.865 0-2.93-.888-1.066-.888-1.066-2.842 0-1.998 1.021-2.886 1.021-.888 2.975-.888zm3.774 9.901V46.41h-7.548V21.855zM162.832 21.411q3.552 0 5.372 2.22 1.82 2.176 1.82 6.794v15.984h-7.592V32.867q0-2.576-.577-3.774-.577-1.2-1.687-1.2-1.643 0-2.264 1.688-.622 1.687-.622 5.195v11.633h-7.593V32.867q0-4.973-2.175-4.973-1.687 0-2.309 1.865-.622 1.82-.622 5.727V46.41h-7.592V21.855h5.86l.933 3.02h.355q.755-1.643 2.398-2.531 1.643-.933 3.952-.933 2.353 0 3.774.933 1.42.888 2.13 2.353h.445q.932-1.554 2.398-2.398 1.51-.888 3.596-.888zM184.214 21.456q4.662 0 7.281 2.886 2.664 2.841 2.664 8.303v3.774h-12.743q.09 4.617 4.53 4.617 1.908 0 3.463-.444 1.598-.444 3.418-1.465v5.95q-3.152 1.776-7.903 1.776-5.417 0-8.214-3.153-2.797-3.197-2.797-9.457 0-6.305 2.664-9.546 2.708-3.241 7.637-3.241zm.222 5.594q-1.244 0-2.087.977-.844.932-.888 3.241h5.727q0-2.087-.754-3.152-.755-1.066-1.998-1.066zM205.634 46.409h-7.592V12.664h7.592zM219.942 21.456q4.662 0 7.282 2.886 2.664 2.841 2.664 8.303v3.774h-12.743q.089 4.617 4.529 4.617 1.91 0 3.463-.444 1.599-.444 3.419-1.465v5.95q-3.152 1.776-7.903 1.776-5.417 0-8.214-3.153-2.798-3.197-2.798-9.457 0-6.305 2.664-9.546 2.709-3.241 7.637-3.241zm.222 5.594q-1.243 0-2.087.977-.843.932-.888 3.241h5.728q0-2.087-.755-3.152-.755-1.066-1.998-1.066zM247.002 21.411q3.418 0 5.372 2.31 1.954 2.264 1.954 6.704v15.984h-7.593V32.822q0-2.442-.488-3.685-.489-1.243-1.91-1.243-1.775 0-2.397 1.731-.577 1.688-.577 5.684v11.1h-7.593V21.855h5.861l.888 3.064h.4q.932-1.732 2.397-2.62 1.51-.888 3.686-.888zM274.588 38.86q0 3.82-2.264 5.906-2.265 2.087-6.75 2.087-2.042 0-3.906-.311-1.82-.31-3.641-1.066v-6.793q1.643.888 3.463 1.465 1.865.533 3.463.533 2.22 0 2.22-1.376 0-.444-.31-.844-.267-.4-1.155-.888-.888-.533-2.708-1.376-2.487-1.155-3.774-2.975-1.244-1.82-1.244-4.573 0-3.464 2.265-5.329 2.309-1.909 6.35-1.909 2.042 0 3.906.533 1.865.533 3.774 1.554l-1.953 5.461q-1.288-.754-2.753-1.287-1.42-.533-2.62-.533-1.687 0-1.687 1.11 0 .4.267.755.266.31 1.065.799.844.444 2.575 1.376 2.531 1.288 3.952 3.02 1.465 1.687 1.465 4.662z" style="-inkscape-font-specification:'Noto Sans Heavy Condensed'"/></g></svg>